<svg xmlns="http://www.w3.org/2000/svg" width="760" height="474" viewBox="0 0 760 474">
  <rect width="760" height="474" rx="28" fill="#020617"/>
  <text x="48" y="48" fill="#f8fafc" font-size="26" font-weight="700" font-family="Inter, Arial">Confusion Matrix</text>
  <text x="48" y="76" fill="#94a3b8" font-size="13" font-family="Inter, Arial">Generated from outputs/sample_ablation/rgb_only/confusion_matrix.csv</text>
  <text x="48" y="430" fill="#94a3b8" font-size="12" font-family="Inter, Arial">0: Pick up kettle · 1: Position kettle to pour · 2: Move kettle · 3: Hold coffee carafe · 4: Grasp coffee scoop</text>
  <text x="150" y="456" fill="#64748b" font-size="13" font-family="Inter, Arial">columns: predicted · rows: true</text>
  <text x="175" y="102" text-anchor="middle" fill="#94a3b8" font-family="Inter, Arial" font-size="12">0</text><text x="132" y="147" text-anchor="end" fill="#94a3b8" font-family="Inter, Arial" font-size="12">0</text><text x="229" y="102" text-anchor="middle" fill="#94a3b8" font-family="Inter, Arial" font-size="12">1</text><text x="132" y="201" text-anchor="end" fill="#94a3b8" font-family="Inter, Arial" font-size="12">1</text><text x="283" y="102" text-anchor="middle" fill="#94a3b8" font-family="Inter, Arial" font-size="12">2</text><text x="132" y="255" text-anchor="end" fill="#94a3b8" font-family="Inter, Arial" font-size="12">2</text><text x="337" y="102" text-anchor="middle" fill="#94a3b8" font-family="Inter, Arial" font-size="12">3</text><text x="132" y="309" text-anchor="end" fill="#94a3b8" font-family="Inter, Arial" font-size="12">3</text><text x="391" y="102" text-anchor="middle" fill="#94a3b8" font-family="Inter, Arial" font-size="12">4</text><text x="132" y="363" text-anchor="end" fill="#94a3b8" font-family="Inter, Arial" font-size="12">4</text>
  <rect x="150" y="116" width="50" height="50" rx="10" fill="#38bdf8" opacity="0.18"/><text x="175" y="147" text-anchor="middle" fill="#e2e8f0" font-family="Inter, Arial" font-size="14">0</text><rect x="204" y="116" width="50" height="50" rx="10" fill="#38bdf8" opacity="0.18"/><text x="229" y="147" text-anchor="middle" fill="#e2e8f0" font-family="Inter, Arial" font-size="14">0</text><rect x="258" y="116" width="50" height="50" rx="10" fill="#38bdf8" opacity="0.18"/><text x="283" y="147" text-anchor="middle" fill="#e2e8f0" font-family="Inter, Arial" font-size="14">0</text><rect x="312" y="116" width="50" height="50" rx="10" fill="#38bdf8" opacity="0.18"/><text x="337" y="147" text-anchor="middle" fill="#e2e8f0" font-family="Inter, Arial" font-size="14">0</text><rect x="366" y="116" width="50" height="50" rx="10" fill="#38bdf8" opacity="0.18"/><text x="391" y="147" text-anchor="middle" fill="#e2e8f0" font-family="Inter, Arial" font-size="14">0</text><rect x="150" y="170" width="50" height="50" rx="10" fill="#38bdf8" opacity="0.18"/><text x="175" y="201" text-anchor="middle" fill="#e2e8f0" font-family="Inter, Arial" font-size="14">0</text><rect x="204" y="170" width="50" height="50" rx="10" fill="#38bdf8" opacity="0.18"/><text x="229" y="201" text-anchor="middle" fill="#e2e8f0" font-family="Inter, Arial" font-size="14">0</text><rect x="258" y="170" width="50" height="50" rx="10" fill="#38bdf8" opacity="0.18"/><text x="283" y="201" text-anchor="middle" fill="#e2e8f0" font-family="Inter, Arial" font-size="14">0</text><rect x="312" y="170" width="50" height="50" rx="10" fill="#38bdf8" opacity="0.18"/><text x="337" y="201" text-anchor="middle" fill="#e2e8f0" font-family="Inter, Arial" font-size="14">0</text><rect x="366" y="170" width="50" height="50" rx="10" fill="#38bdf8" opacity="0.18"/><text x="391" y="201" text-anchor="middle" fill="#e2e8f0" font-family="Inter, Arial" font-size="14">0</text><rect x="150" y="224" width="50" height="50" rx="10" fill="#38bdf8" opacity="0.18"/><text x="175" y="255" text-anchor="middle" fill="#e2e8f0" font-family="Inter, Arial" font-size="14">0</text><rect x="204" y="224" width="50" height="50" rx="10" fill="#38bdf8" opacity="0.18"/><text x="229" y="255" text-anchor="middle" fill="#e2e8f0" font-family="Inter, Arial" font-size="14">0</text><rect x="258" y="224" width="50" height="50" rx="10" fill="#38bdf8" opacity="0.28"/><text x="283" y="255" text-anchor="middle" fill="#e2e8f0" font-family="Inter, Arial" font-size="14">5</text><rect x="312" y="224" width="50" height="50" rx="10" fill="#38bdf8" opacity="0.18"/><text x="337" y="255" text-anchor="middle" fill="#e2e8f0" font-family="Inter, Arial" font-size="14">0</text><rect x="366" y="224" width="50" height="50" rx="10" fill="#38bdf8" opacity="0.18"/><text x="391" y="255" text-anchor="middle" fill="#e2e8f0" font-family="Inter, Arial" font-size="14">0</text><rect x="150" y="278" width="50" height="50" rx="10" fill="#38bdf8" opacity="0.18"/><text x="175" y="309" text-anchor="middle" fill="#e2e8f0" font-family="Inter, Arial" font-size="14">0</text><rect x="204" y="278" width="50" height="50" rx="10" fill="#38bdf8" opacity="0.37"/><text x="229" y="309" text-anchor="middle" fill="#e2e8f0" font-family="Inter, Arial" font-size="14">9</text><rect x="258" y="278" width="50" height="50" rx="10" fill="#38bdf8" opacity="0.90"/><text x="283" y="309" text-anchor="middle" fill="#e2e8f0" font-family="Inter, Arial" font-size="14">35</text><rect x="312" y="278" width="50" height="50" rx="10" fill="#38bdf8" opacity="0.18"/><text x="337" y="309" text-anchor="middle" fill="#e2e8f0" font-family="Inter, Arial" font-size="14">0</text><rect x="366" y="278" width="50" height="50" rx="10" fill="#38bdf8" opacity="0.18"/><text x="391" y="309" text-anchor="middle" fill="#e2e8f0" font-family="Inter, Arial" font-size="14">0</text><rect x="150" y="332" width="50" height="50" rx="10" fill="#38bdf8" opacity="0.18"/><text x="175" y="363" text-anchor="middle" fill="#e2e8f0" font-family="Inter, Arial" font-size="14">0</text><rect x="204" y="332" width="50" height="50" rx="10" fill="#38bdf8" opacity="0.34"/><text x="229" y="363" text-anchor="middle" fill="#e2e8f0" font-family="Inter, Arial" font-size="14">8</text><rect x="258" y="332" width="50" height="50" rx="10" fill="#38bdf8" opacity="0.24"/><text x="283" y="363" text-anchor="middle" fill="#e2e8f0" font-family="Inter, Arial" font-size="14">3</text><rect x="312" y="332" width="50" height="50" rx="10" fill="#38bdf8" opacity="0.18"/><text x="337" y="363" text-anchor="middle" fill="#e2e8f0" font-family="Inter, Arial" font-size="14">0</text><rect x="366" y="332" width="50" height="50" rx="10" fill="#38bdf8" opacity="0.18"/><text x="391" y="363" text-anchor="middle" fill="#e2e8f0" font-family="Inter, Arial" font-size="14">0</text>
</svg>
