<svg xmlns="http://www.w3.org/2000/svg" viewBox="0 0 960 420" role="img" aria-label="Preview of the egocentric action baseline tutorial">
  <defs>
    <linearGradient id="bg" x1="0" x2="1" y1="0" y2="1">
      <stop offset="0" stop-color="#0f172a"/>
      <stop offset="0.55" stop-color="#111827"/>
      <stop offset="1" stop-color="#1e1b4b"/>
    </linearGradient>
    <linearGradient id="bar" x1="0" x2="1">
      <stop offset="0" stop-color="#38bdf8"/>
      <stop offset="1" stop-color="#a78bfa"/>
    </linearGradient>
  </defs>
  <rect width="960" height="420" rx="34" fill="url(#bg)"/>
  <circle cx="820" cy="68" r="130" fill="#2563eb" opacity=".22"/>
  <circle cx="140" cy="350" r="170" fill="#7c3aed" opacity=".18"/>
  <text x="56" y="76" fill="#e5f2ff" font-family="Inter,Arial,sans-serif" font-size="36" font-weight="800">Egocentric Action Baselines</text>
  <text x="58" y="112" fill="#a8b4c7" font-family="Inter,Arial,sans-serif" font-size="18">RGB vs hand joints vs fusion on temporal windows</text>
  <g transform="translate(58 156)">
    <rect width="250" height="160" rx="22" fill="#111827" stroke="#2a3a5a"/>
    <text x="24" y="42" fill="#38bdf8" font-family="Inter,Arial,sans-serif" font-size="16" font-weight="700">Temporal Window</text>
    <rect x="24" y="68" width="52" height="52" rx="12" fill="#172554" stroke="#38bdf8"/>
    <rect x="94" y="68" width="52" height="52" rx="12" fill="#172554" stroke="#38bdf8"/>
    <rect x="164" y="68" width="52" height="52" rx="12" fill="#172554" stroke="#38bdf8"/>
    <path d="M50 96 H190" stroke="#fbbf24" stroke-width="4" stroke-linecap="round">
      <animate attributeName="stroke-dasharray" values="0 160;160 0;0 160" dur="4s" repeatCount="indefinite"/>
    </path>
    <text x="24" y="142" fill="#a8b4c7" font-family="Inter,Arial,sans-serif" font-size="14">frames + motion context</text>
  </g>
  <g transform="translate(354 156)">
    <rect width="250" height="160" rx="22" fill="#111827" stroke="#2a3a5a"/>
    <text x="24" y="42" fill="#a78bfa" font-family="Inter,Arial,sans-serif" font-size="16" font-weight="700">Feature Fusion</text>
    <rect x="24" y="70" width="72" height="34" rx="10" fill="#164e63"/>
    <rect x="110" y="70" width="72" height="34" rx="10" fill="#4c1d95"/>
    <rect x="196" y="70" width="30" height="34" rx="10" fill="#f59e0b"/>
    <text x="60" y="92" fill="#e5f2ff" font-family="Inter,Arial,sans-serif" font-size="13" text-anchor="middle">RGB</text>
    <text x="146" y="92" fill="#e5f2ff" font-family="Inter,Arial,sans-serif" font-size="13" text-anchor="middle">hands</text>
    <path d="M98 87 H108 M184 87 H194" stroke="#a8b4c7" stroke-width="3"/>
    <text x="24" y="142" fill="#a8b4c7" font-family="Inter,Arial,sans-serif" font-size="14">softmax or optional MLP</text>
  </g>
  <g transform="translate(650 156)">
    <rect width="250" height="160" rx="22" fill="#111827" stroke="#2a3a5a"/>
    <text x="24" y="42" fill="#34d399" font-family="Inter,Arial,sans-serif" font-size="16" font-weight="700">Ablation Metrics</text>
    <rect x="32" y="82" width="36" height="44" rx="6" fill="url(#bar)"/>
    <rect x="92" y="54" width="36" height="72" rx="6" fill="url(#bar)"/>
    <rect x="152" y="30" width="36" height="96" rx="6" fill="url(#bar)"/>
    <path d="M28 126 H218" stroke="#2a3a5a"/>
    <text x="24" y="142" fill="#a8b4c7" font-family="Inter,Arial,sans-serif" font-size="14">accuracy ť macro F1 ť per class</text>
  </g>
  <text x="56" y="374" fill="#e5f2ff" font-family="Inter,Arial,sans-serif" font-size="20" font-weight="700">Live tutorial + reproducible CLI</text>
  <text x="56" y="400" fill="#a8b4c7" font-family="Inter,Arial,sans-serif" font-size="16">ego-action-ablation --model both --split-strategy chronological</text>
</svg>
